<svg width="6" height="12" viewBox="0 0 6 12" fill="none" xmlns="http://www.w3.org/2000/svg">
    <path d="M2.14566e-07 6.00007C2.35747e-07 5.51551 0.188426 5.03094 0.558301 4.66406L5.10846 0.1507C5.20696 0.0541473 5.33986 -2.88558e-08 5.47834 -2.28026e-08C5.61682 -1.67495e-08 5.74971 0.0541473 5.84821 0.1507C6.0506 0.351448 6.0506 0.68372 5.84821 0.884467L1.29805 5.39783C0.96307 5.7301 0.96307 6.27004 1.29805 6.60231L5.84821 11.1157C6.0506 11.3164 6.0506 11.6487 5.84821 11.8494C5.64583 12.0502 5.31085 12.0502 5.10846 11.8494L0.558301 7.33608C0.188426 6.9692 1.93385e-07 6.48463 2.14566e-07 6.00007Z" fill="black"/>
</svg>
