<svg width="6" height="12" viewBox="0 0 6 12" fill="none" xmlns="http://www.w3.org/2000/svg">
    <path d="M6 5.99993C6 6.48449 5.81157 6.96906 5.4417 7.33594L0.891538 11.8493C0.793041 11.9459 0.660143 12 0.521663 12C0.383183 12 0.250285 11.9459 0.151788 11.8493C-0.0505961 11.6486 -0.0505961 11.3163 0.151788 11.1155L4.70195 6.60217C5.03693 6.2699 5.03693 5.72996 4.70195 5.39769L0.151788 0.884329C-0.050596 0.683581 -0.050596 0.351309 0.151788 0.150561C0.354173 -0.0501862 0.689154 -0.0501861 0.891538 0.150561L5.4417 4.66392C5.81157 5.0308 6 5.51537 6 5.99993Z" fill="black"/>
</svg>
