<svg width="24" height="24" viewBox="0 0 24 24" fill="none" xmlns="http://www.w3.org/2000/svg">
    <path d="M20.9 9.84999L21.49 19.74C21.51 20.01 21.38 20.19 21.31 20.27C21.23 20.36 21.06 20.5 20.78 20.5H18.05L20.21 9.84999H20.9ZM22 5.99999L21.99 6.01999C22.01 6.25999 21.99 6.50999 21.93 6.75999L14.56 20.29C14.443 20.7793 14.1639 21.2146 13.7681 21.5251C13.3723 21.8355 12.883 22.0029 12.38 22H20.78C21.0851 22.0009 21.3871 21.9386 21.6669 21.8171C21.9468 21.6955 22.1984 21.5174 22.406 21.2938C22.6136 21.0702 22.7727 20.8061 22.8732 20.518C22.9737 20.2299 23.0135 19.9242 22.99 19.62L22 5.99999ZM11.45 2.24099C11.55 1.84099 11.3 1.43099 10.9 1.33099C10.5 1.24099 10.09 1.48099 9.98999 1.88099L9.48999 3.95099H11.03L11.45 2.24099ZM18.05 2.20899C18.14 1.79899 17.88 1.40899 17.47 1.31899C17.3735 1.29848 17.2738 1.29722 17.1768 1.31528C17.0798 1.33335 16.9873 1.37038 16.9046 1.42426C16.8219 1.47815 16.7507 1.54781 16.695 1.62928C16.6393 1.71074 16.6002 1.8024 16.58 1.89899L16.13 3.96899H17.67L18.05 2.20899Z" fill="#1A1A1A"/>
    <path d="M21.82 5.33104C21.49 4.53104 20.71 3.96104 19.75 3.96104H17.67L17.11 6.55104C17.03 6.90104 16.72 7.14104 16.38 7.14104C16.33 7.14104 16.27 7.14104 16.22 7.12104C16.0269 7.07669 15.8585 6.95913 15.7503 6.79313C15.6421 6.62712 15.6026 6.42562 15.64 6.23104L16.13 3.95104H11.03L10.4 6.55104C10.32 6.89104 10.01 7.12104 9.67 7.12104C9.61 7.12104 9.55 7.11104 9.49 7.10104C9.39401 7.07762 9.30359 7.03547 9.22394 6.97701C9.14429 6.91854 9.07698 6.84491 9.02587 6.76035C8.97476 6.67579 8.94086 6.58196 8.92613 6.48426C8.91139 6.38656 8.9161 6.28691 8.94 6.19104L9.48 3.94104H7.45C6.47 3.94104 5.6 4.58104 5.31 5.52104L1.1 19.071C0.659999 20.521 1.73 22.001 3.24 22.001H16.38C17.42 22.001 18.32 21.301 18.56 20.291L21.93 6.76104C21.99 6.51104 22.01 6.26104 21.99 6.02104C21.975 5.78274 21.9174 5.54905 21.82 5.33104ZM14.7 16.751H6.7C6.29 16.751 5.95 16.411 5.95 16.001C5.95 15.591 6.29 15.251 6.7 15.251H14.7C15.11 15.251 15.45 15.591 15.45 16.001C15.45 16.411 15.11 16.751 14.7 16.751ZM15.7 12.751H7.7C7.29 12.751 6.95 12.411 6.95 12.001C6.95 11.591 7.29 11.251 7.7 11.251H15.7C16.11 11.251 16.45 11.591 16.45 12.001C16.45 12.411 16.11 12.751 15.7 12.751Z" fill="#1A1A1A"/>
</svg>
