<svg width="24" height="24" viewBox="0 0 24 24" fill="none" xmlns="http://www.w3.org/2000/svg">
    <path d="M12.676 19.959C12.951 20.023 12.976 20.383 12.708 20.472L11.128 20.992C7.15802 22.272 5.06802 21.202 3.77802 17.232L2.49802 13.282C1.21802 9.312 2.27802 7.212 6.24802 5.932L6.77202 5.758C7.17502 5.625 7.56702 6.029 7.45202 6.438C7.39602 6.64 7.34202 6.852 7.28802 7.072L6.30802 11.262C5.20802 15.972 6.81802 18.572 11.528 19.692L12.676 19.959Z" fill="#1A1A1A"/>
    <path d="M17.17 3.20903L15.5 2.81903C12.16 2.02903 10.17 2.67903 9 5.09903C8.7 5.70903 8.46 6.44903 8.26 7.29903L7.28 11.489C6.3 15.669 7.59 17.729 11.76 18.719L13.44 19.119C14.02 19.259 14.56 19.349 15.06 19.389C18.18 19.689 19.84 18.229 20.68 14.619L21.66 10.439C22.64 6.25903 21.36 4.18903 17.17 3.20903ZM15.29 13.329C15.2 13.669 14.9 13.889 14.56 13.889C14.5 13.889 14.44 13.879 14.37 13.869L11.46 13.129C11.2796 13.0695 11.1284 12.9438 11.0371 12.7771C10.9458 12.6105 10.9212 12.4154 10.9682 12.2313C11.0151 12.0472 11.1302 11.8878 11.2902 11.7853C11.4502 11.6828 11.6431 11.6448 11.83 11.679L14.74 12.419C15.15 12.519 15.39 12.929 15.29 13.329ZM18.22 9.94903C18.13 10.289 17.83 10.509 17.49 10.509C17.43 10.509 17.37 10.499 17.3 10.489L12.45 9.25903C12.2696 9.19953 12.1184 9.07376 12.0271 8.90713C11.9358 8.74049 11.9112 8.54542 11.9582 8.36132C12.0051 8.17722 12.1202 8.01781 12.2802 7.91529C12.4402 7.81278 12.6331 7.7748 12.82 7.80903L17.67 9.03903C18.08 9.12903 18.32 9.53903 18.22 9.94903Z" fill="#1A1A1A"/>
</svg>
